{"title":"The Loved Ones 2009.BRRip H264.Feel-Free","uid":5866270,"size":1188014153,"categoryP":"video","categoryS":"movies","magnet":"?xt=urn:btih:f023d47160b7f93522a5499b30adafda199bc5dc&amp;dn=The+Loved+Ones+2009.BRRip+H264.Feel-Free&amp;tr=udp%3A%2F%2Ftracker.openbittorrent.com%3A80&amp;tr=udp%3A%2F%2Fopen.demonii.com%3A1337&amp;tr=udp%3A%2F%2Ftracker.coppersurfer.tk%3A6969&amp;tr=udp%3A%2F%2Fexodus.desync.com%3A6969","seeders":0,"leechers":2,"uploader":"neon","files":-1,"time":1286226503,"description":"In order to avoid a ghostly figure in the road, high school senior Brent Mitchell wraps his car around a tree, killing his father. Constantly confronted by his mother's emotional collapse after the accident, Brent escapes into a marijuana fueled world of loud metal music to block the pain and guilt. Dejected and out of sorts, he has a shot at happiness with his girlfriend Holly, a grounded, caring girl with drop dead good looks, a dream date for the high school prom. But his plans are thwarted by a disturbing series of events that take place under a mirrored disco ball, involving pink satin, glitter, syringes, nails, power drills and a secret admirer. Brent has become the prom king at a macabre, sadistic event where he is the entertainment\n\nGenre:Horror\nLanguage:English\n &lt;a href=&quot; http://www.imdb.com/title/tt1316536/&quot; rel=&quot;nofollow&quot; target=&quot;_NEW&quot;&gt; http://www.imdb.com/title/tt1316536/&lt;/a&gt;\nSource:720p.BluRay.x264-AVCHD\n\nGeneral\nComplete name :The.Loved.Ones.2009.BRRip.H264.Feel-Free\nFormat : MPEG-4\nFormat profile : Base Media\nCodec ID : isom\nFile size : 1.11 GiB\nDuration : 1h 24mn\nOverall bit rate : 1 884 Kbps\nVideo #1\nCodec ID : avc1\nCodec ID/Info : Advanced Video Coding\nDuration : 1h 24mn\nBit rate mode : Variable\nBit rate : 1 560 Kbps\nWidth : 720 pixels\nHeight : 304 pixels\nDisplay aspect ratio : 2.35:1\nFrame rate mode : Constant\nFrame rate : 24.390 fps\nResolution : 24 bits\nColorimetry : 4:2:0\nScan type : Progressive\nBits/(Pixel*Frame) : 0.292\nStream size : 938 MiB (83%)\nAudio #2\nID : 2\nFormat : AAC\nFormat/Info : Advanced Audio Codec\nFormat version : Version 4\nFormat profile : LC\nFormat settings, SBR : No\nCodec ID : 40\nDuration : 1h 24mn\nBit rate mode : Variable\nBit rate : 320 Kbps\nChannel(s) : 6 channels\nChannel positions : Front: L C R, Rear: L R, LFE\nSampling rate : 48.0 KHz\nResolution : 16 bits\nStream size : 192 MiB (17%)","torrent":{"xt":"urn:btih:f023d47160b7f93522a5499b30adafda199bc5dc","amp;dn":"The+Loved+Ones+2009.BRRip+H264.Feel-Free","amp;tr":["udp%3A%2F%2Ftracker.openbittorrent.com%3A80","udp%3A%2F%2Fopen.demonii.com%3A1337","udp%3A%2F%2Ftracker.coppersurfer.tk%3A6969","udp%3A%2F%2Fexodus.desync.com%3A6969"],"infoHash":"f023d47160b7f93522a5499b30adafda199bc5dc","infoHashBuffer":{"type":"Buffer","data":[240,35,212,113,96,183,249,53,34,165,73,155,48,173,175,218,25,155,197,220]},"announce":[],"urlList":[]}}